<mxfile host="app.diagrams.net" modified="2024-04-14T21:21:01.138Z" agent="Mozilla/5.0 (Windows NT 10.0; Win64; x64) AppleWebKit/537.36 (KHTML, like Gecko) Chrome/123.0.0.0 Safari/537.36" etag="VadSSGImmIQcIu0nVXM4" version="24.2.5" type="device">
  <diagram name="Page-1" id="hnDSSbpnhsCYQlrRJo9r">
    <mxGraphModel dx="1839" dy="532" grid="1" gridSize="10" guides="1" tooltips="1" connect="1" arrows="1" fold="1" page="1" pageScale="1" pageWidth="850" pageHeight="1100" math="0" shadow="0">
      <root>
        <mxCell id="0" />
        <mxCell id="1" parent="0" />
        <mxCell id="tqqCS_ivMZEZ87t5agF4-36" value="" style="rounded=0;whiteSpace=wrap;html=1;movable=1;resizable=1;rotatable=1;deletable=1;editable=1;locked=0;connectable=1;container=0;" vertex="1" parent="1">
          <mxGeometry x="120.26" y="152.82" width="179.74" height="177.18" as="geometry" />
        </mxCell>
        <mxCell id="tqqCS_ivMZEZ87t5agF4-33" style="edgeStyle=orthogonalEdgeStyle;rounded=0;orthogonalLoop=1;jettySize=auto;html=1;exitX=1;exitY=0.5;exitDx=0;exitDy=0;entryX=0;entryY=0.5;entryDx=0;entryDy=0;" edge="1" parent="1" source="tqqCS_ivMZEZ87t5agF4-1" target="tqqCS_ivMZEZ87t5agF4-15">
          <mxGeometry relative="1" as="geometry" />
        </mxCell>
        <mxCell id="tqqCS_ivMZEZ87t5agF4-1" value="&lt;b&gt;btn_i&lt;/b&gt;" style="text;html=1;align=center;verticalAlign=middle;whiteSpace=wrap;rounded=0;" vertex="1" parent="1">
          <mxGeometry x="-380" y="234.25" width="50" height="26.5" as="geometry" />
        </mxCell>
        <mxCell id="tqqCS_ivMZEZ87t5agF4-31" value="" style="group;movable=1;resizable=1;rotatable=1;deletable=1;editable=1;locked=0;connectable=1;" vertex="1" connectable="0" parent="1">
          <mxGeometry x="-270" y="180" width="132" height="109" as="geometry" />
        </mxCell>
        <mxCell id="tqqCS_ivMZEZ87t5agF4-12" value="" style="rounded=0;whiteSpace=wrap;html=1;movable=1;resizable=1;rotatable=1;deletable=1;editable=1;locked=0;connectable=1;" vertex="1" parent="tqqCS_ivMZEZ87t5agF4-31">
          <mxGeometry x="2" width="130" height="90" as="geometry" />
        </mxCell>
        <mxCell id="tqqCS_ivMZEZ87t5agF4-13" value="clk" style="text;html=1;align=center;verticalAlign=middle;whiteSpace=wrap;rounded=0;movable=1;resizable=1;rotatable=1;deletable=1;editable=1;locked=0;connectable=1;container=0;" vertex="1" parent="tqqCS_ivMZEZ87t5agF4-31">
          <mxGeometry y="11" width="32" height="20" as="geometry" />
        </mxCell>
        <mxCell id="tqqCS_ivMZEZ87t5agF4-14" value="resetn" style="text;html=1;align=center;verticalAlign=middle;whiteSpace=wrap;rounded=0;movable=1;resizable=1;rotatable=1;deletable=1;editable=1;locked=0;connectable=1;" vertex="1" parent="tqqCS_ivMZEZ87t5agF4-31">
          <mxGeometry y="36" width="50" height="15" as="geometry" />
        </mxCell>
        <mxCell id="tqqCS_ivMZEZ87t5agF4-15" value="async_i" style="text;html=1;align=center;verticalAlign=middle;whiteSpace=wrap;rounded=0;movable=1;resizable=1;rotatable=1;deletable=1;editable=1;locked=0;connectable=1;" vertex="1" parent="tqqCS_ivMZEZ87t5agF4-31">
          <mxGeometry x="3" y="60" width="50" height="15" as="geometry" />
        </mxCell>
        <mxCell id="tqqCS_ivMZEZ87t5agF4-16" value="&lt;b&gt;cdc&lt;/b&gt;" style="text;html=1;align=center;verticalAlign=middle;whiteSpace=wrap;rounded=0;movable=1;resizable=1;rotatable=1;deletable=1;editable=1;locked=0;connectable=1;" vertex="1" parent="tqqCS_ivMZEZ87t5agF4-31">
          <mxGeometry x="35" y="89" width="58" height="20" as="geometry" />
        </mxCell>
        <mxCell id="tqqCS_ivMZEZ87t5agF4-17" value="sync_o" style="text;html=1;align=center;verticalAlign=middle;whiteSpace=wrap;rounded=0;fontStyle=0;movable=1;resizable=1;rotatable=1;deletable=1;editable=1;locked=0;connectable=1;" vertex="1" parent="tqqCS_ivMZEZ87t5agF4-31">
          <mxGeometry x="82" y="14" width="50" height="15" as="geometry" />
        </mxCell>
        <mxCell id="tqqCS_ivMZEZ87t5agF4-34" style="edgeStyle=orthogonalEdgeStyle;rounded=0;orthogonalLoop=1;jettySize=auto;html=1;exitX=1;exitY=0.5;exitDx=0;exitDy=0;entryX=0;entryY=0.5;entryDx=0;entryDy=0;" edge="1" parent="1" source="tqqCS_ivMZEZ87t5agF4-17" target="tqqCS_ivMZEZ87t5agF4-24">
          <mxGeometry relative="1" as="geometry" />
        </mxCell>
        <mxCell id="tqqCS_ivMZEZ87t5agF4-37" value="clk" style="text;html=1;align=center;verticalAlign=middle;whiteSpace=wrap;rounded=0;container=0;" vertex="1" parent="1">
          <mxGeometry x="118" y="152.81636363636363" width="36.090225563909776" height="36.36363636363636" as="geometry" />
        </mxCell>
        <mxCell id="tqqCS_ivMZEZ87t5agF4-38" value="resetn" style="text;html=1;align=center;verticalAlign=middle;whiteSpace=wrap;rounded=0;container=0;" vertex="1" parent="1">
          <mxGeometry x="116" y="177.9109090909091" width="56.390977443609025" height="27.272727272727273" as="geometry" />
        </mxCell>
        <mxCell id="tqqCS_ivMZEZ87t5agF4-39" value="btn_i" style="text;html=1;align=center;verticalAlign=middle;whiteSpace=wrap;rounded=0;container=0;" vertex="1" parent="1">
          <mxGeometry x="120.2" y="200.73" width="40" height="25.82" as="geometry" />
        </mxCell>
        <mxCell id="tqqCS_ivMZEZ87t5agF4-40" value="&lt;b&gt;decode&lt;/b&gt;" style="text;html=1;align=center;verticalAlign=middle;whiteSpace=wrap;rounded=0;container=0;" vertex="1" parent="1">
          <mxGeometry x="175.13" y="325.46000000000004" width="70" height="25.73" as="geometry" />
        </mxCell>
        <mxCell id="tqqCS_ivMZEZ87t5agF4-41" value="tdata_o" style="text;html=1;align=center;verticalAlign=middle;whiteSpace=wrap;rounded=0;fontStyle=0;container=0;" vertex="1" parent="1">
          <mxGeometry x="238.0751879699248" y="156.9109090909091" width="69.92481203007519" height="27.272727272727273" as="geometry" />
        </mxCell>
        <mxCell id="tqqCS_ivMZEZ87t5agF4-42" value="tvalid_o" style="text;html=1;align=center;verticalAlign=middle;whiteSpace=wrap;rounded=0;fontStyle=0;container=0;" vertex="1" parent="1">
          <mxGeometry x="237.0751879699248" y="178.1809090909091" width="69.92481203007519" height="27.272727272727273" as="geometry" />
        </mxCell>
        <mxCell id="tqqCS_ivMZEZ87t5agF4-43" value="dash_ctrl_o" style="text;html=1;align=center;verticalAlign=middle;whiteSpace=wrap;rounded=0;fontStyle=0;container=0;" vertex="1" parent="1">
          <mxGeometry x="227.0751879699248" y="201.5509090909091" width="69.92481203007519" height="27.272727272727273" as="geometry" />
        </mxCell>
        <mxCell id="tqqCS_ivMZEZ87t5agF4-47" value="illegal_ctrl_o" style="text;html=1;align=center;verticalAlign=middle;whiteSpace=wrap;rounded=0;fontStyle=0;container=0;" vertex="1" parent="1">
          <mxGeometry x="220" y="224.54999999999998" width="79" height="27.27" as="geometry" />
        </mxCell>
        <mxCell id="tqqCS_ivMZEZ87t5agF4-48" value="char_ctrl_o" style="text;html=1;align=center;verticalAlign=middle;whiteSpace=wrap;rounded=0;fontStyle=0;container=0;" vertex="1" parent="1">
          <mxGeometry x="224" y="248.82" width="79" height="27.27" as="geometry" />
        </mxCell>
        <mxCell id="tqqCS_ivMZEZ87t5agF4-49" value="word_ctrl_o" style="text;html=1;align=center;verticalAlign=middle;whiteSpace=wrap;rounded=0;fontStyle=0;container=0;" vertex="1" parent="1">
          <mxGeometry x="1050" y="610" width="79" height="27.27" as="geometry" />
        </mxCell>
        <mxCell id="tqqCS_ivMZEZ87t5agF4-51" style="edgeStyle=orthogonalEdgeStyle;rounded=0;orthogonalLoop=1;jettySize=auto;html=1;exitX=1;exitY=0.5;exitDx=0;exitDy=0;entryX=0;entryY=0.5;entryDx=0;entryDy=0;" edge="1" parent="1" source="tqqCS_ivMZEZ87t5agF4-26" target="tqqCS_ivMZEZ87t5agF4-39">
          <mxGeometry relative="1" as="geometry" />
        </mxCell>
        <mxCell id="tqqCS_ivMZEZ87t5agF4-52" value="dash_exp_i" style="text;html=1;align=center;verticalAlign=middle;whiteSpace=wrap;rounded=0;fontStyle=0;container=0;" vertex="1" parent="1">
          <mxGeometry x="122.0751879699248" y="223.1809090909091" width="69.92481203007519" height="27.272727272727273" as="geometry" />
        </mxCell>
        <mxCell id="tqqCS_ivMZEZ87t5agF4-53" value="illegal_exp_i" style="text;html=1;align=center;verticalAlign=middle;whiteSpace=wrap;rounded=0;fontStyle=0;container=0;" vertex="1" parent="1">
          <mxGeometry x="120" y="247.17999999999998" width="79" height="27.27" as="geometry" />
        </mxCell>
        <mxCell id="tqqCS_ivMZEZ87t5agF4-54" value="char_exp_i" style="text;html=1;align=center;verticalAlign=middle;whiteSpace=wrap;rounded=0;fontStyle=0;container=0;" vertex="1" parent="1">
          <mxGeometry x="116" y="271.45" width="79" height="27.27" as="geometry" />
        </mxCell>
        <mxCell id="tqqCS_ivMZEZ87t5agF4-55" value="word_exp_i" style="text;html=1;align=center;verticalAlign=middle;whiteSpace=wrap;rounded=0;fontStyle=0;container=0;" vertex="1" parent="1">
          <mxGeometry x="118" y="295.45" width="79" height="27.27" as="geometry" />
        </mxCell>
        <mxCell id="tqqCS_ivMZEZ87t5agF4-56" value="" style="group;movable=0;resizable=0;rotatable=0;deletable=0;editable=0;locked=1;connectable=0;" vertex="1" connectable="0" parent="1">
          <mxGeometry x="-80" y="180" width="133" height="110" as="geometry" />
        </mxCell>
        <mxCell id="tqqCS_ivMZEZ87t5agF4-21" value="" style="rounded=0;whiteSpace=wrap;html=1;movable=1;resizable=1;rotatable=1;deletable=1;editable=1;locked=0;connectable=1;container=0;" vertex="1" parent="tqqCS_ivMZEZ87t5agF4-56">
          <mxGeometry x="2" width="130" height="90" as="geometry" />
        </mxCell>
        <mxCell id="tqqCS_ivMZEZ87t5agF4-22" value="clk" style="text;html=1;align=center;verticalAlign=middle;whiteSpace=wrap;rounded=0;container=0;" vertex="1" parent="tqqCS_ivMZEZ87t5agF4-56">
          <mxGeometry y="13" width="32" height="20" as="geometry" />
        </mxCell>
        <mxCell id="tqqCS_ivMZEZ87t5agF4-23" value="resetn" style="text;html=1;align=center;verticalAlign=middle;whiteSpace=wrap;rounded=0;container=0;" vertex="1" parent="tqqCS_ivMZEZ87t5agF4-56">
          <mxGeometry y="38" width="50" height="15" as="geometry" />
        </mxCell>
        <mxCell id="tqqCS_ivMZEZ87t5agF4-24" value="raw_btn_i" style="text;html=1;align=center;verticalAlign=middle;whiteSpace=wrap;rounded=0;container=0;" vertex="1" parent="tqqCS_ivMZEZ87t5agF4-56">
          <mxGeometry x="1" y="58" width="67" height="19" as="geometry" />
        </mxCell>
        <mxCell id="tqqCS_ivMZEZ87t5agF4-25" value="&lt;b&gt;debounce&lt;/b&gt;" style="text;html=1;align=center;verticalAlign=middle;whiteSpace=wrap;rounded=0;container=0;" vertex="1" parent="tqqCS_ivMZEZ87t5agF4-56">
          <mxGeometry x="34" y="90" width="66" height="20" as="geometry" />
        </mxCell>
        <mxCell id="tqqCS_ivMZEZ87t5agF4-26" value="db_btn_o" style="text;html=1;align=center;verticalAlign=middle;whiteSpace=wrap;rounded=0;fontStyle=0;container=0;" vertex="1" parent="tqqCS_ivMZEZ87t5agF4-56">
          <mxGeometry x="71" y="16" width="62" height="15" as="geometry" />
        </mxCell>
        <mxCell id="tqqCS_ivMZEZ87t5agF4-57" value="word_ctrl_o" style="text;html=1;align=center;verticalAlign=middle;whiteSpace=wrap;rounded=0;fontStyle=0;container=0;" vertex="1" parent="1">
          <mxGeometry x="223" y="271.45" width="79" height="27.27" as="geometry" />
        </mxCell>
      </root>
    </mxGraphModel>
  </diagram>
</mxfile>
